HIERARCHY
ROOT root
{
	OFFSET 0.000000 0.000000 0.000000
	CHANNELS 6 Xposition Yposition Zposition Zrotation Yrotation Xrotation
	JOINT lhip
	{
		OFFSET 0.058581 -0.082280 -0.017664
		CHANNELS 3 Zrotation Yrotation Xrotation
		JOINT lknee
		{
			OFFSET 0.043451 -0.386469 0.008037
			CHANNELS 3 Zrotation Yrotation Xrotation
			JOINT lankle
			{
				OFFSET -0.014790 -0.426874 -0.037428
				CHANNELS 3 Zrotation Yrotation Xrotation
				JOINT ltoe
				{
					OFFSET 0.041054 -0.060286 0.122042
					CHANNELS 3 Zrotation Yrotation Xrotation
					End Site
					{
						OFFSET 0.000000 0.000000 0.000000
					}
				}
			}
		}
	}
	JOINT rhip
	{
		OFFSET -0.060310 -0.090513 -0.013543
		CHANNELS 3 Zrotation Yrotation Xrotation
		JOINT rknee
		{
			OFFSET -0.043257 -0.383688 -0.004843
			CHANNELS 3 Zrotation Yrotation Xrotation
			JOINT rankle
			{
				OFFSET 0.019056 -0.420046 -0.034562
				CHANNELS 3 Zrotation Yrotation Xrotation
				JOINT rtoe
				{
					OFFSET -0.034840 -0.062106 0.130323
					CHANNELS 3 Zrotation Yrotation Xrotation
					End Site
					{
						OFFSET 0.000000 0.000000 0.000000
					}
				}
			}
		}
	}
	JOINT lowerback
	{
		OFFSET 0.004439 0.124404 -0.038385
		CHANNELS 3 Zrotation Yrotation Xrotation
		JOINT upperback
		{
			OFFSET 0.004488 0.137956 0.026820
			CHANNELS 3 Zrotation Yrotation Xrotation
			JOINT chest
			{
				OFFSET -0.002265 0.056032 0.002855
				CHANNELS 3 Zrotation Yrotation Xrotation
				JOINT lowerneck
				{
					OFFSET -0.013390 0.211636 -0.033468
					CHANNELS 3 Zrotation Yrotation Xrotation
					JOINT upperneck
					{
						OFFSET 0.010113 0.088937 0.050410
						CHANNELS 3 Zrotation Yrotation Xrotation
						End Site
						{
							OFFSET 0.000000 0.000000 0.000000
						}
					}
				}
				JOINT lclavicle
				{
					OFFSET 0.071702 0.114000 -0.018898
					CHANNELS 3 Zrotation Yrotation Xrotation
					JOINT lshoulder
					{
						OFFSET 0.122921 0.045205 -0.019046
						CHANNELS 3 Zrotation Yrotation Xrotation
						JOINT lelbow
						{
							OFFSET 0.255332 -0.015649 -0.022946
							CHANNELS 3 Zrotation Yrotation Xrotation
							JOINT lwrist
							{
								OFFSET 0.265709 0.012698 -0.007375
								CHANNELS 3 Zrotation Yrotation Xrotation
								End Site
								{
									OFFSET 0.000000 0.000000 0.000000
								}
							}
						}
					}
				}
				JOINT rclavicle
				{
					OFFSET -0.082954 0.112472 -0.023707
					CHANNELS 3 Zrotation Yrotation Xrotation
					JOINT rshoulder
					{
						OFFSET -0.113228 0.046853 -0.008472
						CHANNELS 3 Zrotation Yrotation Xrotation
						JOINT relbow
						{
							OFFSET -0.260127 -0.014369 -0.031269
							CHANNELS 3 Zrotation Yrotation Xrotation
							JOINT rwrist
							{
								OFFSET -0.269108 0.006794 -0.006027
								CHANNELS 3 Zrotation Yrotation Xrotation
								End Site
								{
									OFFSET 0.000000 0.000000 0.000000
								}
							}
						}
					}
				}
			}
		}
	}
}
MOTION
Frames: 14
Frame Time: 0.033333
-0.233168 0.397401 0.980649 90.052910 -2.993212 85.895374 -3.793262 1.187090 -15.986879 -8.503062 -2.969141 28.930997 0.517174 13.448083 -15.515627 0.000000 -0.000000 0.000000 -14.856697 -4.894719 3.676791 1.339012 11.455705 31.966443 12.964165 -6.859304 -12.177764 0.000000 -0.000000 0.000000 10.201365 5.157148 20.440712 6.039084 1.092523 -6.118399 3.986110 2.434709 3.620616 -5.196270 -9.750281 13.147743 -9.912672 -9.578988 11.020984 -5.843115 6.334959 -7.448566 -15.798942 -1.940034 -11.072056 21.224002 -35.551054 -10.981980 5.783033 -1.285904 13.378282 8.240020 1.374668 -9.409049 4.643863 9.928497 -11.460995 -13.214573 21.702138 -15.199764 -22.046382 3.639650 21.966602 
-0.222553 0.403130 0.979640 89.539848 -2.928425 86.263686 -4.082177 1.359791 -16.045867 -8.444189 -2.406697 29.617730 0.866358 13.640339 -16.380144 0.000000 -0.000000 0.000000 -15.078915 -4.845477 3.561539 1.165860 11.968907 32.201299 13.340820 -6.710873 -11.315729 0.000000 -0.000000 0.000000 10.271889 5.260764 20.756813 6.308467 1.222176 -6.315260 4.126470 2.645601 3.704243 -5.305458 -9.510693 12.757700 -10.172332 -9.826737 11.088022 -5.624870 6.744113 -7.647275 -15.094352 -1.759432 -11.643654 21.350907 -35.608720 -11.383608 5.682891 -1.499616 13.756977 8.936241 1.210084 -9.391016 5.387308 9.972444 -10.974724 -13.205308 21.537678 -15.178542 -21.926442 3.649231 22.145931 
-0.212358 0.407554 0.978775 89.089980 -2.762760 86.801783 -4.205217 1.407853 -16.175181 -8.375863 -1.933203 30.066323 1.206454 13.940558 -17.167475 0.000000 -0.000000 0.000000 -15.104720 -4.813610 3.284580 1.039883 12.226425 32.373397 13.574273 -6.755125 -10.459466 0.000000 -0.000000 0.000000 10.117700 5.397169 20.813051 6.488546 1.312358 -6.269550 4.241538 2.756687 3.769016 -5.273838 -9.288842 12.426705 -10.118252 -9.922898 10.965108 -5.532905 7.044422 -7.679352 -14.796963 -1.556698 -11.949206 21.502907 -35.594873 -11.652002 5.572990 -1.616987 13.926385 9.440325 0.996701 -9.306983 6.110037 9.807745 -10.478196 -13.131664 21.401169 -15.035147 -21.422602 3.307391 21.766254 
-0.201861 0.410895 0.978321 88.823352 -2.548621 87.357604 -4.253902 1.280883 -16.250714 -8.392299 -1.924949 30.460775 1.523950 14.330251 -17.802049 0.000000 -0.000000 0.000000 -15.027552 -4.701440 3.191516 0.955700 12.419266 32.314167 13.878854 -6.816167 -9.571658 0.000000 -0.000000 0.000000 9.808033 5.450261 20.766099 6.487607 1.315947 -6.217507 4.268546 2.785278 3.918859 -5.093839 -9.109645 12.163020 -9.975949 -9.918042 10.863587 -5.510796 7.274016 -7.644018 -14.920469 -1.497024 -11.899317 21.408251 -35.331819 -11.573454 5.549687 -1.667753 13.559126 9.677843 0.727315 -9.317989 6.799348 9.643362 -9.932497 -12.949344 20.879542 -14.773056 -21.174690 2.991281 21.342477 
-0.191072 0.412975 0.978484 88.661328 -2.207358 87.903374 -4.157703 1.079635 -16.459163 -8.330965 -1.846881 31.064396 1.781184 14.917088 -18.155924 0.000000 -0.000000 0.000000 -14.730046 -4.380720 3.216022 0.954945 12.672081 32.124326 14.105977 -6.792382 -8.567284 0.000000 -0.000000 0.000000 9.427091 5.419250 20.669233 6.330504 1.245113 -6.135295 4.209675 2.752958 4.069341 -4.944942 -9.058065 12.053222 -9.673207 -9.761949 10.730486 -5.555342 7.417637 -7.588419 -15.558131 -1.425955 -11.635944 21.265719 -35.038364 -11.206598 5.341553 -1.494789 13.172450 9.664661 0.487608 -9.401640 7.346650 9.453699 -9.647104 -12.866471 20.226865 -14.651688 -20.909908 2.607593 20.973763 
-0.180159 0.413920 0.979045 88.545735 -1.727133 88.425787 -3.963864 0.753714 -16.807592 -8.058580 -1.610286 31.902080 1.998617 15.779755 -18.287055 0.000000 -0.000000 0.000000 -14.266763 -4.021534 3.311630 1.094851 12.949158 31.863052 14.227774 -6.812270 -7.368195 0.000000 -0.000000 0.000000 8.941623 5.418139 20.540456 6.150314 1.130165 -5.972101 4.157358 2.657089 4.160807 -4.784323 -9.157367 11.923099 -9.341253 -9.350328 10.680944 -5.848544 7.431530 -7.492598 -16.453504 -1.404999 -11.276247 21.010794 -34.559506 -10.965184 5.019913 -1.293593 12.871456 9.605794 0.306429 -9.420898 7.203009 9.126724 -9.766533 -12.862835 19.838169 -15.080410 -20.644267 2.358953 20.724433 
-0.169365 0.414107 0.979787 88.292028 -1.104764 88.991044 -3.649858 0.431286 -17.184137 -7.691597 -1.555184 32.723436 2.205327 16.756872 -18.357665 0.000000 -0.000000 0.000000 -13.757157 -3.973190 3.290217 1.335165 13.145692 31.571422 14.332085 -6.772494 -6.350927 0.000000 -0.000000 0.000000 8.453378 5.525969 20.507258 5.877126 1.061754 -5.933152 4.116433 2.502774 4.293106 -4.598567 -9.385222 11.834895 -8.803485 -8.928934 10.519377 -6.278453 7.399564 -7.402936 -17.653232 -1.402742 -10.828622 20.553753 -33.796101 -10.857496 4.973255 -0.837165 12.205619 9.417841 0.029103 -9.510081 6.739299 8.760372 -10.092307 -13.073222 19.874474 -15.612618 -20.737906 2.356287 20.990117 
-0.159140 0.413805 0.980414 87.740725 -0.387861 89.656169 -3.172647 0.218940 -17.560721 -7.288822 -1.435860 33.369042 2.460488 17.617453 -18.453886 0.000000 -0.000000 0.000000 -13.258332 -4.147931 3.048669 1.706816 13.241715 31.266980 14.240775 -6.683866 -5.686249 0.000000 -0.000000 0.000000 8.051748 5.693435 20.424154 5.464527 1.050732 -5.824621 4.005553 2.339325 4.400841 -4.351805 -9.596846 11.800288 -8.191514 -8.227417 10.152267 -6.769478 7.349894 -7.313752 -19.168033 -1.284021 -10.248580 19.974831 -32.642628 -10.424273 5.072824 -0.362579 11.232405 8.944000 -0.275842 -9.565283 6.233617 8.370590 -10.467089 -13.396612 20.501397 -15.828774 -20.724244 2.173266 20.702290 
-0.149398 0.413453 0.980872 86.924857 0.337078 90.403523 -2.648147 0.166147 -17.979533 -6.914041 -1.311376 33.944891 2.652916 18.267080 -18.624515 0.000000 -0.000000 0.000000 -12.896705 -4.505039 2.608815 2.025767 13.095821 30.953883 14.322358 -6.466884 -4.867347 0.000000 -0.000000 0.000000 7.838557 5.752260 20.551402 4.805459 1.123113 -5.974054 3.735816 2.227697 4.427497 -4.120196 -9.813331 11.656532 -7.641985 -7.382544 10.148326 -7.373028 7.463869 -7.362423 -20.663484 -0.937231 -9.773920 19.346935 -31.665099 -9.811121 4.741063 -0.023896 10.801766 8.227989 -0.566339 -9.736687 5.653252 8.079728 -11.002968 -13.601599 21.212394 -15.981899 -20.394001 2.071062 20.394165 
-0.140274 0.413465 0.981297 86.059447 1.052844 91.166456 -2.126432 0.117209 -18.395960 -6.532490 -1.184262 34.447562 2.821746 18.774663 -18.874685 0.000000 -0.000000 0.000000 -12.665561 -4.917844 2.069618 2.339044 12.909577 30.694376 14.741502 -5.998614 -3.723096 0.000000 -0.000000 0.000000 7.825857 5.680348 20.877449 4.063465 1.292155 -6.375068 3.465864 2.240682 4.303857 -4.104618 -10.236094 11.768125 -7.076631 -6.208921 9.875594 -8.141096 7.706059 -7.649229 -22.145886 -0.733669 -9.446427 18.892688 -30.904198 -9.315718 4.484431 0.575992 10.624179 7.242825 -0.858708 -9.799669 4.690663 7.744070 -11.826487 -13.708094 21.716226 -16.055379 -20.219609 2.052889 20.602414 
-0.131530 0.413866 0.981297 85.255530 1.669518 91.899185 -1.631984 0.030841 -18.703764 -6.264354 -1.059833 34.766927 2.939949 19.107683 -19.137309 0.000000 -0.000000 0.000000 -12.519763 -5.193491 1.582780 2.672684 13.050550 30.427814 15.100960 -5.538388 -2.687139 0.000000 -0.000000 0.000000 7.962814 5.643411 21.026449 3.356686 1.495142 -6.604263 3.159568 2.205280 4.262118 -4.048642 -10.632405 11.698605 -6.629821 -5.139540 9.607787 -8.832536 7.960550 -7.971839 -23.473602 -0.723704 -9.225635 18.627429 -30.207571 -9.122951 4.284629 0.966160 10.444568 6.234833 -1.194323 -9.977133 3.250289 7.513130 -12.861688 -13.855685 22.038118 -16.294088 -20.318857 2.269593 21.138447 
-0.122846 0.414307 0.981011 84.601866 2.028820 92.583303 -1.295629 0.039767 -18.917126 -6.203778 -1.005205 34.959446 2.955934 19.212937 -19.381543 0.000000 -0.000000 0.000000 -12.350100 -5.242518 1.132811 2.882120 13.643234 30.308531 15.229440 -5.484609 -1.822463 0.000000 -0.000000 0.000000 7.941338 5.639632 20.985856 2.730040 1.655417 -6.712582 2.868539 2.137174 4.358255 -3.842941 -10.919461 11.445844 -6.272063 -4.320504 9.473746 -9.328154 8.083819 -8.221886 -24.366076 -0.672862 -8.934653 18.482983 -29.618299 -9.026139 4.269843 0.912022 10.270506 5.292134 -1.554445 -10.479047 1.619407 7.253278 -13.703174 -13.996882 22.388695 -16.475950 -20.199335 2.558010 21.623846 
-0.114025 0.414059 0.980838 84.125926 2.049825 93.244497 -1.116370 -0.013743 -19.098328 -6.357568 -0.905582 35.147738 2.797960 19.102840 -19.415750 0.000000 -0.000000 0.000000 -11.947465 -4.844010 0.543803 2.650368 14.282202 30.632300 15.462915 -5.990662 -0.817897 0.000000 -0.000000 0.000000 7.395668 5.603583 20.820173 2.169606 1.667137 -6.839939 2.636854 2.085111 4.406463 -3.568247 -11.071980 11.479920 -5.737744 -3.670635 9.187556 -9.648041 8.145538 -8.455731 -24.577960 -0.400389 -8.661525 18.459483 -29.368968 -9.371130 4.442320 0.941767 10.208546 4.434804 -1.931035 -11.052017 0.462801 7.173920 -14.091076 -14.384678 22.878014 -16.899171 -20.119836 2.517800 21.894730 
-0.105119 0.412396 0.981164 83.831322 1.885858 93.802535 -0.964214 -0.161574 -19.140123 -6.640657 -0.906468 35.303722 2.494732 18.912284 -19.223367 0.000000 -0.000000 0.000000 -11.194640 -3.951715 -0.199706 2.116804 14.754373 31.484450 15.488689 -7.051154 0.295839 0.000000 -0.000000 0.000000 6.340576 5.349664 20.651332 1.600226 1.485507 -6.987682 2.346684 1.985724 4.556798 -3.158030 -11.058334 11.417579 -5.038140 -3.006718 8.977222 -9.892573 8.405101 -8.672444 -24.139358 -0.019307 -8.602852 18.768435 -29.397322 -10.183370 4.723249 0.850418 10.339560 3.801402 -2.261223 -11.665161 0.024756 7.447511 -13.836420 -14.922851 23.355632 -17.316280 -20.009069 2.364960 21.875746 
